# xmcd
#
# Track frame offsets: 
#        150
#        28546
#        53296
#        74669
#        90420
#        111794
#        138372
#        161855
#        186887
#        216137
#        241166
#        271524
#        292353
#        321040
#
# Disc length: 4722 seconds
#
# Revision: 0
# Processed by: cddbd v1.5.2PL0 Copyright (c) Steve Scherf et al.
# Submitted via: ExactAudioCopy v0.99pb4
#
DISCID=c612700e
DTITLE=Various Artist - Виниловые пляски 2008
DYEAR=2008
DGENRE=House
TTITLE0=Инфинити and D.I.P. Project - Где ты? (DJ Нил Latino Mix)
TTITLE1=Marc Maris feat. Soryaya Vivian - Captured (House Mix)
TTITLE2=Лаччо - Как ты хотела (DJ Нил Remix)
TTITLE3=Tim Sanchez and Leslie A. - Warsawa Street (MBHI aka Mr. Vasovsk
TTITLE3=i REmix)
TTITLE4=Сергей Шнуров и DJ Нил - Привет, Морриконе (Old School House M
TTITLE4=ix)
TTITLE5=Eddie Thoneick feat. Bonse - Together As One (Dub Mix)
TTITLE6=DJ She and DJ Nejtrino - Мир Без Любимого feat. Mary Balak (Noiz
TTITLE6=Remix)
TTITLE7=Leonid Rudenko feat. Vicky Fee - Real Life (Misha Daniels Refu
TTITLE7=nkt Mix)
TTITLE8=StoneBridge feat. Rita Campbell - Close To Heaven (Club Mix)
TTITLE9=DJ Нил - Солнце (Пусть Всегда Светит Солнце)
TTITLE10=DJ Antoine vs Mad Mark feat. Ron Carroll - Fly With Me (Exten
TTITLE10=ded Vocal Mix)
TTITLE11=DJ Нил - Russia Dance (Astero Extended)
TTITLE12=Antolini and Moreno vs Thomas Gold - Don't know Anybody (Origin
TTITLE12=al Club Mix)
TTITLE13=М.У.В. - Гламурим потихоньку (Alex Nevsky A them Club Mix)
EXTD=
EXTT0=
EXTT1=
EXTT2=
EXTT3=
EXTT4=
EXTT5=
EXTT6=
EXTT7=
EXTT8=
EXTT9=
EXTT10=
EXTT11=
EXTT12=
EXTT13=
PLAYORDER=
